<svg width="19.000000" height="24.000000" viewBox="0 0 19 24" fill="none" xmlns="http://www.w3.org/2000/svg" xmlns:xlink="http://www.w3.org/1999/xlink">
	<desc>
			Created with Pixso.
	</desc>
	<defs/>
	<path id="Vector" d="M9.32 0C2.74 0 -0.75 4.21 -0.75 8.81C-0.75 10.94 0.44 13.6 2.34 14.44C2.89 14.68 2.82 14.39 3.28 12.6C3.32 12.45 3.3 12.32 3.18 12.18C0.45 9.03 2.65 2.54 8.93 2.54C18.03 2.54 16.33 15.13 10.51 15.13C9.02 15.13 7.9 13.95 8.25 12.5C8.68 10.76 9.52 8.9 9.52 7.65C9.52 4.5 4.83 4.97 4.83 9.14C4.83 10.43 5.29 11.3 5.29 11.3C5.29 11.3 3.78 17.39 3.5 18.53C3.02 20.46 3.56 23.58 3.61 23.85C3.64 24 3.8 24.05 3.9 23.92C4.04 23.73 5.87 21.13 6.38 19.25C6.57 18.56 7.33 15.78 7.33 15.78C7.83 16.69 9.28 17.45 10.83 17.45C15.42 17.45 18.74 13.41 18.74 8.4C18.73 3.59 14.62 0 9.32 0L9.32 0Z" fill="#FFFFFF" fill-opacity="1.000000" fill-rule="nonzero"/>
</svg>
