<?xml version="1.0" standalone="no"?>
<!DOCTYPE svg PUBLIC "-//W3C//DTD SVG 20010904//EN"
 "http://www.w3.org/TR/2001/REC-SVG-20010904/DTD/svg10.dtd">
<svg version="1.0" xmlns="http://www.w3.org/2000/svg"
 width="70.000000pt" height="70.000000pt" viewBox="0 0 70.000000 70.000000"
 preserveAspectRatio="xMidYMid meet">
<metadata>
Created by potrace 1.10, written by Peter Selinger 2001-2011
</metadata>
<g transform="translate(0.000000,70.000000) scale(0.100000,-0.100000)"
fill="#000000" stroke="none">
<path d="M129 633 c-1 -5 -1 -16 0 -25 2 -12 -7 -18 -31 -20 -30 -3 -33 -7
-36 -37 -6 -65 49 -141 102 -141 8 0 22 -13 30 -28 18 -35 75 -92 93 -92 13 0
18 -37 7 -64 -3 -9 -12 -16 -19 -16 -7 0 -24 -9 -38 -20 -14 -11 -35 -20 -46
-20 -19 0 -21 -6 -21 -55 l0 -55 168 2 167 3 3 53 c3 46 1 52 -17 52 -11 0
-40 14 -65 31 -57 38 -63 74 -16 101 17 10 43 38 58 62 16 27 34 45 45 46 57
1 112 75 105 141 -3 30 -7 34 -35 37 -27 3 -32 7 -30 25 2 22 1 22 -210 25
-117 1 -214 -1 -214 -5z m404 -20 c3 -5 -1 -30 -8 -58 -27 -102 -57 -167 -99
-211 -36 -37 -48 -44 -82 -44 -81 0 -136 63 -173 200 -12 41 -21 85 -21 97 l0
23 189 0 c105 0 192 -3 194 -7z m-399 -55 c2 -7 11 -38 19 -67 9 -30 14 -57
12 -60 -3 -2 -16 1 -30 7 -28 13 -55 66 -55 107 0 20 5 25 25 25 14 0 27 -6
29 -12z m466 -13 c0 -58 -41 -115 -83 -115 -11 0 -9 14 9 68 13 37 24 68 24
70 0 1 11 2 25 2 20 0 25 -5 25 -25z m-240 -286 c0 -31 18 -59 48 -72 26 -11
25 -12 -20 -15 -27 -2 -69 -2 -95 0 -46 3 -47 4 -21 15 30 13 48 41 48 72 0
14 6 21 20 21 14 0 20 -7 20 -21z m130 -144 l0 -35 -150 0 -150 0 0 35 0 35
150 0 150 0 0 -35z"/>
<path d="M332 536 c-8 -18 -19 -26 -37 -26 -30 0 -33 -15 -5 -30 15 -8 18 -17
13 -40 -6 -33 -2 -36 27 -18 16 10 24 10 40 0 29 -18 32 -15 25 16 -4 20 -1
33 10 42 21 17 19 30 -4 30 -11 0 -28 12 -38 26 l-19 26 -12 -26z m58 -48 c0
-5 -4 -8 -10 -8 -5 0 -10 -8 -10 -17 0 -13 -8 -18 -25 -18 -16 0 -23 5 -21 12
3 7 1 15 -4 18 -15 9 -12 25 5 25 8 0 15 4 15 9 0 5 11 4 25 -2 14 -7 25 -15
25 -19z"/>
</g>
</svg>
